<?xml version="1.0" standalone="no"?>
<!DOCTYPE svg PUBLIC "-//W3C//DTD SVG 20010904//EN"
 "http://www.w3.org/TR/2001/REC-SVG-20010904/DTD/svg10.dtd">
<svg version="1.0" xmlns="http://www.w3.org/2000/svg"
 width="558.000000pt" height="558.000000pt" viewBox="0 0 558.000000 558.000000"
 preserveAspectRatio="xMidYMid meet">
<metadata>
Created by potrace 1.11, written by Peter Selinger 2001-2013
</metadata>
<g transform="translate(0.000000,558.000000) scale(0.100000,-0.100000)"
fill="#000000" stroke="none">
<path d="M2743 5561 c-41 -25 -80 -83 -98 -146 l-15 -50 -282 -1 c-208 0 -320
-5 -423 -18 -252 -32 -493 -87 -654 -150 l-63 -25 -57 43 c-91 71 -156 100
-228 100 -55 1 -65 -2 -92 -28 -17 -16 -36 -45 -42 -64 -15 -44 -6 -161 16
-227 l17 -51 -79 -79 c-127 -127 -213 -258 -278 -420 -156 -387 -159 -864 -11
-1645 72 -375 80 -435 121 -885 30 -321 49 -458 81 -581 47 -183 101 -297 199
-423 l56 -71 -30 -53 c-43 -76 -98 -248 -110 -346 -18 -143 16 -270 83 -315
34 -21 104 -20 158 3 66 28 195 129 270 210 59 64 139 171 150 200 1 5 53 -3
115 -20 421 -108 866 -115 1332 -18 52 10 97 19 101 19 4 0 20 -35 35 -77 60
-172 172 -346 250 -390 122 -69 234 30 290 257 20 81 27 279 12 380 l-8 55 62
45 c155 113 238 262 296 536 25 122 27 144 27 409 1 154 -2 324 -7 377 l-7 97
32 5 c18 3 60 7 93 10 60 6 60 6 75 -26 31 -66 149 -95 264 -64 l62 17 58 -35
c111 -67 172 -81 341 -80 132 1 161 4 240 28 112 34 184 76 245 145 100 111
150 249 150 414 0 284 -151 481 -399 518 -60 9 -82 18 -123 49 -51 38 -130 70
-175 70 -20 0 -24 4 -18 18 54 136 66 371 26 517 -69 257 -247 467 -486 576
-157 71 -379 94 -536 54 -24 -6 -26 -3 -43 72 -81 350 -281 604 -582 739 l-82
37 -33 75 c-83 190 -198 272 -296 213z m120 -101 c19 -16 49 -57 67 -91 33
-62 33 -62 9 -55 -13 3 -66 14 -116 23 -103 18 -108 24 -77 86 38 75 65 83
117 37z m-78 -209 c490 -90 744 -316 861 -766 l23 -90 -22 -15 c-153 -105
-187 -239 -132 -530 51 -275 56 -305 70 -440 21 -189 23 -176 -32 -195 -27 -8
-60 -26 -74 -38 -40 -33 -79 -96 -79 -128 0 -22 -7 -32 -32 -45 -42 -21 -96
-71 -114 -106 -22 -42 -17 -107 12 -166 31 -62 71 -93 129 -100 l43 -4 4 -79
c3 -86 20 -119 75 -151 70 -41 196 -28 262 28 l30 25 5 -23 c34 -164 57 -737
36 -933 -28 -273 -106 -474 -228 -587 -144 -135 -440 -259 -752 -317 -36 -7
-87 -17 -113 -22 -225 -43 -656 -56 -867 -25 -562 81 -898 261 -1054 566 -98
189 -132 363 -176 885 -22 252 -54 500 -85 660 -9 44 -20 103 -25 130 -5 28
-16 88 -25 135 -18 95 -37 219 -62 390 -22 150 -25 657 -5 770 55 305 157 521
335 708 33 34 64 62 68 62 4 0 10 -9 14 -20 12 -36 82 -116 115 -130 89 -37
300 82 352 198 24 53 18 85 -27 152 l-34 50 36 15 c118 50 363 107 575 135
261 35 703 35 893 1z m-1798 -41 c64 -28 121 -71 187 -138 102 -103 107 -130
40 -192 -45 -41 -138 -90 -173 -90 -58 0 -171 233 -171 353 0 85 35 105 117
67z m3108 -865 c215 -38 402 -161 520 -344 251 -389 106 -913 -310 -1116 -109
-54 -194 -75 -300 -75 l-80 0 -2 58 c-1 57 -21 122 -47 152 -7 8 -19 32 -26
54 -16 50 -69 108 -118 130 l-39 18 -12 139 c-11 137 -26 236 -76 494 -26 139
-32 256 -14 318 13 50 69 110 125 137 50 25 164 48 240 49 28 1 91 -6 139 -14z
m-501 -1422 c78 -4 115 -2 160 11 32 10 59 16 61 14 31 -37 32 -107 4 -165
-21 -43 -22 -44 -41 -26 -34 30 -143 24 -259 -15 -77 -26 -101 -31 -122 -23
-52 20 -83 103 -57 152 6 10 34 32 62 48 41 24 56 28 71 19 11 -6 66 -13 121
-15z m472 -238 c-21 -55 -15 -252 10 -342 7 -25 -5 -30 -97 -36 l-56 -3 -17
145 c-9 80 -20 170 -23 199 l-6 52 98 0 c83 0 96 -2 91 -15z m-336 -35 c6 -23
10 -64 8 -92 -4 -67 -34 -92 -113 -92 -82 0 -97 18 -93 113 l3 74 50 18 c28
10 69 18 92 18 41 1 43 0 53 -39z m-2588 -1977 c48 -28 115 -61 148 -73 55
-21 59 -24 48 -44 -51 -96 -239 -280 -334 -327 -111 -55 -144 -22 -144 139 0
107 26 214 81 330 l39 84 37 -30 c21 -16 77 -52 125 -79z m2343 -68 c17 -198
-36 -408 -116 -468 -25 -18 -28 -18 -58 -3 -45 24 -106 106 -155 210 -46 95
-83 194 -75 198 2 2 63 23 134 46 72 24 155 56 185 72 30 15 60 28 67 29 7 1
14 -29 18 -84z"/>
<path d="M1412 4634 c-114 -25 -172 -73 -172 -144 0 -38 23 -84 52 -104 35
-25 101 -20 136 8 33 28 84 120 112 201 l19 55 -42 -1 c-23 -1 -71 -7 -105
-15z m-15 -131 c-26 -41 -54 -54 -63 -29 -7 19 12 45 41 56 41 17 46 11 22
-27z"/>
<path d="M2176 4485 c-132 -34 -213 -69 -320 -139 -259 -170 -419 -459 -432
-774 l-4 -104 -57 -28 c-70 -33 -135 -101 -171 -178 -21 -45 -27 -76 -30 -145
-5 -103 7 -156 53 -249 l34 -68 -29 -47 c-16 -26 -33 -62 -36 -81 -4 -19 -29
-62 -59 -99 -71 -88 -115 -163 -127 -215 -36 -159 91 -339 268 -378 97 -22
186 16 320 135 51 45 75 60 100 61 71 2 168 90 199 181 11 34 19 40 72 59 87
30 160 73 222 130 l56 50 75 -6 c308 -24 624 114 820 357 72 89 153 249 181
358 30 114 37 306 15 414 -74 364 -324 642 -673 747 -77 23 -109 27 -253 30
-122 3 -180 0 -224 -11z m433 -100 c150 -39 291 -124 405 -245 85 -92 132
-164 175 -270 169 -424 -14 -898 -426 -1104 -108 -54 -200 -76 -342 -83 l-123
-6 40 74 c119 216 127 363 31 550 -94 182 -271 312 -460 339 -126 18 -238 -16
-343 -103 l-49 -41 6 110 c11 220 97 405 263 565 109 104 232 175 372 213 130
36 319 36 451 1z m-1387 -1903 c48 -81 164 -181 276 -237 29 -14 52 -29 51
-33 0 -11 -114 -104 -151 -124 -40 -21 -107 -23 -153 -4 -116 49 -181 161
-150 261 12 41 91 165 104 165 4 0 14 -12 23 -28z"/>
<path d="M2898 3730 c-79 -24 -131 -99 -130 -187 0 -63 21 -103 74 -146 44
-35 122 -47 181 -28 45 15 102 78 116 128 13 47 13 59 1 105 -28 100 -140 159
-242 128z m192 -90 c24 -24 25 -38 4 -68 -17 -24 -62 -30 -82 -10 -29 29 -1
98 40 98 10 0 27 -9 38 -20z"/>
<path d="M891 4255 c-46 -44 -103 -108 -128 -143 -45 -62 -92 -175 -93 -220
-1 -93 68 -190 150 -212 81 -22 172 17 220 95 36 59 36 101 0 191 -46 112 -51
135 -58 259 l-7 110 -84 -80z m12 -169 c3 -19 22 -76 43 -126 36 -90 36 -93
21 -125 -32 -68 -113 -91 -161 -46 -66 62 -52 155 41 284 19 26 38 47 43 47 4
0 10 -15 13 -34z"/>
<path d="M835 1380 c-10 -16 24 -120 41 -127 32 -12 38 14 19 77 -13 44 -23
60 -36 60 -10 0 -21 -5 -24 -10z"/>
<path d="M863 1203 c-31 -11 11 -103 47 -103 24 0 25 18 3 64 -17 37 -29 46
-50 39z"/>
<path d="M947 1204 c-21 -21 6 -114 33 -114 25 0 29 17 15 70 -10 42 -31 60
-48 44z"/>
<path d="M4433 3745 c-45 -27 -93 -108 -93 -154 0 -51 23 -106 59 -142 119
-120 321 -38 321 130 0 68 -22 114 -73 155 -32 26 -48 31 -105 34 -58 2 -73
-1 -109 -23z m235 -67 c18 -18 14 -63 -8 -83 -45 -41 -110 18 -76 70 18 27 63
34 84 13z"/>
<path d="M314 4489 c-87 -11 -136 -26 -175 -52 -46 -31 -61 -63 -55 -117 9
-90 107 -132 174 -75 37 31 75 95 107 180 28 72 28 76 18 74 -5 -1 -36 -5 -69
-10z m-84 -143 c-27 -45 -63 -50 -58 -9 2 20 11 29 38 38 19 7 37 11 39 9 2
-2 -7 -19 -19 -38z"/>
</g>
</svg>
